# Rhino

g object_1
v -38.02886581420898 38.00027465820313 57.9978141784668
v -38.02886581420898 24.00027275085449 51.9978141784668
v -38.02886581420898 24.00027275085449 57.9978141784668
v -38.02886581420898 38.00027465820313 51.9978141784668
v -22.02886772155762 24.00027275085449 51.9978141784668
v -36.97516632080078 25.05397605895996 50.88242340087891
v -23.08256912231445 25.05397605895996 50.88242340087891
v -38.02886581420898 24.00027275085449 51.9978141784668
v -24.02886581420898 36.00027465820313 47.9978141784668
v -36.02886581420898 26.00027275085449 47.9978141784668
v -36.02886581420898 36.00027465820313 47.9978141784668
v -24.02886581420898 26.00027275085449 47.9978141784668
v -22.02886772155762 24.00027275085449 51.9978141784668
v -25.02886772155762 24.00027275085449 53.9978141784668
v -38.02886581420898 24.00027275085449 51.9978141784668
v -22.02886772155762 24.00027275085449 57.9978141784668
v -25.02886772155762 24.00027275085449 57.9978141784668
v -35.02886581420898 24.00027275085449 53.9978141784668
v -38.02886581420898 24.00027275085449 57.9978141784668
v -35.02886581420898 24.00027275085449 57.9978141784668
v -24.02886581420898 26.00027275085449 47.9978141784668
v -23.76877403259277 36.00027465820313 49.510009765625
v -24.02886581420898 36.00027465820313 47.9978141784668
v -23.76877403259277 36.26036834716797 49.510009765625
v -38.02886581420898 38.00027465820313 51.9978141784668
v -23.08256912231445 36.94657135009766 50.88242340087891
v -22.02886772155762 38.00027465820313 51.9978141784668
v -36.97516632080078 36.94657135009766 50.88242340087891
v -23.76877403259277 36.26036834716797 49.510009765625
v -23.08256912231445 25.05397605895996 50.88242340087891
v -22.02886772155762 36.00027465820313 51.9978141784668
v -22.02886772155762 24.00027275085449 51.9978141784668
v -22.02886772155762 38.00027465820313 51.9978141784668
v -35.02886581420898 38.00027465820313 53.9978141784668
v -35.02886581420898 24.00027275085449 57.9978141784668
v -35.02886581420898 24.00027275085449 53.9978141784668
v -35.02886581420898 38.00027465820313 57.9978141784668
v -36.28895950317383 25.74018096923828 49.510009765625
v -23.76877403259277 25.74018096923828 49.510009765625
v -23.76877403259277 25.74018096923828 49.510009765625
v -23.08256912231445 36.00027465820313 50.88242340087891
v -23.08256912231445 36.94657135009766 50.88242340087891
v -36.02886581420898 26.00027275085449 47.9978141784668
v -24.02886581420898 26.00027275085449 47.9978141784668
v -25.02886772155762 24.00027275085449 53.9978141784668
v -35.02886581420898 38.00027465820313 53.9978141784668
v -35.02886581420898 24.00027275085449 53.9978141784668
v -25.02886772155762 38.00027465820313 53.9978141784668
v -25.02886772155762 38.00027465820313 57.9978141784668
v -25.02886772155762 24.00027275085449 53.9978141784668
v -25.02886772155762 24.00027275085449 57.9978141784668
v -25.02886772155762 38.00027465820313 53.9978141784668
v -38.02886581420898 38.00027465820313 51.9978141784668
v -35.02886581420898 38.00027465820313 53.9978141784668
v -22.02886772155762 38.00027465820313 51.9978141784668
v -38.02886581420898 38.00027465820313 57.9978141784668
v -35.02886581420898 38.00027465820313 57.9978141784668
v -25.02886772155762 38.00027465820313 53.9978141784668
v -22.02886772155762 38.00027465820313 57.9978141784668
v -25.02886772155762 38.00027465820313 57.9978141784668
v -35.02886581420898 24.00027275085449 57.9978141784668
v -38.02886581420898 38.00027465820313 57.9978141784668
v -38.02886581420898 24.00027275085449 57.9978141784668
v -35.02886581420898 38.00027465820313 57.9978141784668
v -38.02886581420898 38.00027465820313 51.9978141784668
v -36.97516632080078 25.05397605895996 50.88242340087891
v -38.02886581420898 24.00027275085449 51.9978141784668
v -36.97516632080078 36.94657135009766 50.88242340087891
v -36.02886581420898 26.00027275085449 47.9978141784668
v -36.02886581420898 36.00027465820313 47.9978141784668
v -22.02886772155762 36.00027465820313 51.9978141784668
v -22.02886772155762 24.00027275085449 57.9978141784668
v -22.02886772155762 24.00027275085449 51.9978141784668
v -22.02886772155762 38.00027465820313 57.9978141784668
v -22.02886772155762 38.00027465820313 51.9978141784668
v -36.28895950317383 25.74018096923828 49.510009765625
v -36.28895950317383 36.26036834716797 49.510009765625
v -22.02886772155762 24.00027275085449 57.9978141784668
v -25.02886772155762 38.00027465820313 57.9978141784668
v -25.02886772155762 24.00027275085449 57.9978141784668
v -22.02886772155762 38.00027465820313 57.9978141784668
v -36.28895950317383 36.26036834716797 49.510009765625
v -24.02886581420898 36.00027465820313 47.9978141784668
v -36.02886581420898 36.00027465820313 47.9978141784668
vt -5.511811256408691 3.937007904052734
vt 0 1.574803113937378
vt 0 3.937007904052734
vt -5.511811256408691 1.574803113937378
vt 6.299212455749512 1.144761562347412
vt 0.4148431718349457 0.5406665205955505
vt 5.884369373321533 0.5406665205955505
vt 1.232595164407831e-32 1.144761562347412
vt -5.511811256408691 4.724409580230713
vt -0.787401556968689 0.787401556968689
vt -0.787401556968689 4.724409580230713
vt -5.511811256408691 0.787401556968689
vt 6.299212455749512 1.574803113937378
vt 5.118110179901123 2.362204790115356
vt 0 1.574803113937378
vt 6.299212455749512 3.937007904052734
vt 5.118110179901123 3.937007904052734
vt 1.181102395057678 2.362204790115356
vt 0 3.937007904052734
vt 1.181102395057678 3.937007904052734
vt 0.787401556968689 0.9342954158782959
vt 4.724409580230713 1.538390517234802
vt 4.724409580230713 0.9342954158782959
vt 4.826808452606201 1.538390517234802
vt 0 4.929823398590088
vt -5.884369373321533 4.325728416442871
vt -6.299212455749512 4.929823398590088
vt -0.4148431718349457 3.295209407806397
vt -5.61421012878418 2.69111442565918
vt 0.4148431718349457 4.866451263427734
vt 4.724409580230713 5.470546245574951
vt 7.405579411691194e-16 5.470546245574951
vt 5.511811256408691 5.470546245574951
vt 5.511811256408691 2.362204790115356
vt 8.881784197001252e-16 3.937007904052734
vt 8.881784197001252e-16 2.362204790115356
vt 5.511811256408691 3.937007904052734
vt 0.6850026845932007 0.2261575013399124
vt 5.61421012878418 0.2261575013399124
vt 0.6850026845932007 3.043251037597656
vt 4.724409580230713 3.647346019744873
vt 5.096967697143555 3.647346019744873
vt 0.787401556968689 -0.1334707736968994
vt 5.511811256408691 -0.1334707736968994
vt 5.118110179901123 8.881784197001252e-16
vt 1.181102395057678 5.511811256408691
vt 1.181102395057678 8.881784197001252e-16
vt 5.118110179901123 5.511811256408691
vt -5.511811256408691 3.937007904052734
vt -8.881784197001252e-16 2.362204790115356
vt -8.881784197001252e-16 3.937007904052734
vt -5.511811256408691 2.362204790115356
vt 0 1.574803113937378
vt -1.181102395057678 2.362204790115356
vt -6.299212455749512 1.574803113937378
vt 0 3.937007904052734
vt -1.181102395057678 3.937007904052734
vt -5.118110179901123 2.362204790115356
vt -6.299212455749512 3.937007904052734
vt -5.118110179901123 3.937007904052734
vt 1.181102395057678 8.881784197001252e-16
vt 0 5.511811256408691
vt 0 0
vt 1.181102395057678 5.511811256408691
vt -5.511811256408691 1.144761562347412
vt -0.4148431718349457 0.5406665205955505
vt 0 1.144761562347412
vt -5.096967697143555 0.5406665205955505
vt -0.787401556968689 -0.1334707736968994
vt -4.724409580230713 -0.1334707736968994
vt 4.724409580230713 1.574803113937378
vt 8.881784197001252e-16 3.937007904052734
vt 8.881784197001252e-16 1.574803113937378
vt 5.511811256408691 3.937007904052734
vt 5.511811256408691 1.574803113937378
vt -0.6850026845932007 0.2261575013399124
vt -4.826808452606201 0.2261575013399124
vt 6.299212455749512 8.881784197001252e-16
vt 5.118110179901123 5.511811256408691
vt 5.118110179901123 8.881784197001252e-16
vt 6.299212455749512 5.511811256408691
vt -0.6850026845932007 1.404919743537903
vt -5.511811256408691 0.8008246421813965
vt -0.787401556968689 0.8008246421813965
vn -1 0 0
vn -1 0 0
vn -1 0 0
vn -1 0 0
vn 5.12475050121349e-17 -0.7269235253334045 -0.6867184042930603
vn 3.449395432160839e-17 -0.7902948260307312 -0.6127268075942993
vn 0 -0.8466669917106628 -0.5321231484413147
vn 1.024950100242698e-16 -0.7269235253334045 -0.6867184042930603
vn 0 0 -1
vn 0 0 -1
vn 0 0 -1
vn 0 0 -1
vn 7.049916100490626e-17 -1 1.057487216550247e-16
vn 3.524958050245313e-17 -1 3.348709816860802e-16
vn 2.976631536538038e-16 -1 4.464946246015872e-16
vn 0 -1 0
vn 0 -1 0
vn 5.013273553816536e-16 -1 3.759954900664606e-16
vn 7.519910330724803e-16 -1 0
vn 7.519910330724803e-16 -1 0
vn 0.985528826713562 0 -0.1695078909397125
vn 0.9589689373970032 0 -0.2835111320018768
vn 0.985528826713562 0 -0.1695078909397125
vn 0.9336987733840942 0 -0.35805943608284
vn 0 0.7269232273101807 -0.686718761920929
vn 0 0.7902946472167969 -0.6127269864082336
vn 0 0.7269232273101807 -0.686718761920929
vn 0 0.8466670513153076 -0.5321230292320252
vn 0 0.9336987733840942 -0.35805943608284
vn 0.7902949452400208 0 -0.612726628780365
vn 0.7269236445426941 0 -0.6867182850837708
vn 0.7269236445426941 0 -0.6867182850837708
vn 0.7269236445426941 0 -0.6867182850837708
vn 1 0 0
vn 1 0 0
vn 1 0 0
vn 1 0 0
vn 0 -0.9336987137794495 -0.3580597043037415
vn 0 -0.9643583297729492 -0.2645998001098633
vn 0.9336987733840942 0 -0.35805943608284
vn 0.8466671109199524 0 -0.5321229100227356
vn 0.7902949452400208 0 -0.612726628780365
vn 0 -0.985528826713562 -0.1695078909397125
vn 0 -0.985528826713562 -0.1695078909397125
vn 0 0 1
vn 0 0 1
vn 0 0 1
vn 0 0 1
vn -1 0 0
vn -1 0 0
vn -1 0 0
vn -1 0 0
vn 0 1 0
vn 0 1 0
vn 0 1 0
vn 0 1 0
vn 0 1 0
vn 0 1 0
vn 0 1 0
vn 0 1 0
vn 0 0 1
vn 0 0 1
vn 0 0 1
vn 0 0 1
vn -0.7269235253334045 0 -0.6867184042930603
vn -0.7902948260307312 0 -0.6127268075942993
vn -0.7269235253334045 0 -0.6867184042930603
vn -0.8466669917106628 0 -0.5321231484413147
vn -0.985528826713562 0 -0.1695078909397125
vn -0.985528826713562 0 -0.1695078909397125
vn 1 0 0
vn 1 0 0
vn 1 0 0
vn 1 0 0
vn 1 0 0
vn -0.9336987137794495 0 -0.3580597043037415
vn -0.9643583297729492 0 -0.2645998299121857
vn 0 0 1
vn 0 0 1
vn 0 0 1
vn 0 0 1
vn 0 0.9643583297729492 -0.2645997107028961
vn 0 0.985528826713562 -0.1695078909397125
vn 0 0.985528826713562 -0.1695078909397125
f 1/1/1 2/2/2 3/3/3
f 2/2/2 1/1/1 4/4/4
f 5/5/5 6/6/6 7/7/7
f 6/6/6 5/5/5 8/8/8
f 9/9/9 10/10/10 11/11/11
f 10/10/10 9/9/9 12/12/12
f 13/13/13 14/14/14 15/15/15
f 14/14/14 13/13/13 16/16/16
f 14/14/14 16/16/16 17/17/17
f 15/15/15 18/18/18 19/19/19
f 18/18/18 15/15/15 14/14/14
f 19/19/19 18/18/18 20/20/20
f 21/21/21 22/22/22 40/40/40
f 22/22/22 21/21/21 23/23/23
f 22/22/22 23/23/23 24/24/24
f 25/25/25 26/26/26 28/28/28
f 26/26/26 25/25/25 27/27/27
f 28/28/28 29/29/29 82/82/82
f 29/29/29 28/28/28 26/26/26
f 30/30/30 31/31/31 32/32/32
f 31/31/31 30/30/30 41/41/41
f 31/31/31 41/41/41 42/42/42
f 31/31/31 42/42/42 33/33/33
f 34/34/34 35/35/35 36/36/36
f 35/35/35 34/34/34 37/37/37
f 7/7/7 38/38/38 39/39/39
f 38/38/38 7/7/7 6/6/6
f 40/40/40 41/41/41 30/30/30
f 41/41/41 40/40/40 22/22/22
f 41/41/41 22/22/22 24/24/24
f 41/41/41 24/24/24 42/42/42
f 39/39/39 43/43/43 44/44/44
f 43/43/43 39/39/39 38/38/38
f 45/45/45 46/46/46 47/47/47
f 46/46/46 45/45/45 48/48/48
f 49/49/49 50/50/50 51/51/51
f 50/50/50 49/49/49 52/52/52
f 53/53/53 54/54/54 55/55/55
f 54/54/54 53/53/53 56/56/56
f 54/54/54 56/56/56 57/57/57
f 55/55/55 58/58/58 59/59/59
f 58/58/58 55/55/55 54/54/54
f 59/59/59 58/58/58 60/60/60
f 61/61/61 62/62/62 63/63/63
f 62/62/62 61/61/61 64/64/64
f 65/65/65 66/66/66 67/67/67
f 66/66/66 65/65/65 68/68/68
f 77/77/77 69/69/69 76/76/76
f 69/69/69 77/77/77 70/70/70
f 71/71/71 72/72/72 73/73/73
f 72/72/72 71/71/71 74/74/74
f 74/74/74 71/71/71 75/75/75
f 68/68/68 76/76/76 66/66/66
f 76/76/76 68/68/68 77/77/77
f 78/78/78 79/79/79 80/80/80
f 79/79/79 78/78/78 81/81/81
f 82/82/82 83/83/83 84/84/84
f 83/83/83 82/82/82 29/29/29
