# Rhino

g object_1
v -35.00002670288086 38.00000381469727 69.00006866455078
v -25.00002670288086 38.00000381469727 54.00007629394531
v -35.00002670288086 38.00000381469727 54.00007629394531
v -25.00002670288086 38.00000381469727 69.00006866455078
v -35.00002670288086 -37.99999618530273 54.00007629394531
v -35.00002670288086 38.00000381469727 69.00006866455078
v -35.00002670288086 38.00000381469727 54.00007629394531
v -35.00002670288086 -37.99999618530273 69.00006866455078
v -35.00002670288086 -37.99999618530273 54.00007629394531
v -25.00002670288086 -4.999997615814209 54.00007629394531
v -25.00002670288086 -37.99999618530273 54.00007629394531
v -26.00003433227539 -4.999997615814209 54.00007629394531
v -30.00003433227539 -1.999997854232788 54.00007629394531
v -26.00003433227539 5.000002384185791 54.00007629394531
v -25.00002670288086 38.00000381469727 54.00007629394531
v -25.00002670288086 5.000002384185791 54.00007629394531
v -35.00002670288086 38.00000381469727 54.00007629394531
v -26.00003433227539 1.500002264976502 54.00007629394531
v -30.00003433227539 2.000002145767212 54.00007629394531
v -26.00003433227539 -1.499997735023499 54.00007629394531
v -25.00002670288086 5.000002384185791 69.00006866455078
v -26.00003433227539 5.000002384185791 54.00007629394531
v -25.00002670288086 5.000002384185791 54.00007629394531
v -26.00003433227539 5.000002384185791 69.00006866455078
v -26.00003433227539 1.500002264976502 69.00006866455078
v -26.00003433227539 5.000002384185791 54.00007629394531
v -26.00003433227539 5.000002384185791 69.00006866455078
v -26.00003433227539 1.500002264976502 54.00007629394531
v -26.00003433227539 1.500002264976502 69.00006866455078
v -30.00003433227539 2.000002145767212 54.00007629394531
v -26.00003433227539 1.500002264976502 54.00007629394531
v -30.00003433227539 2.000002145767212 69.00006866455078
v -30.00003433227539 -1.999997854232788 69.00006866455078
v -30.00003433227539 2.000002145767212 54.00007629394531
v -30.00003433227539 2.000002145767212 69.00006866455078
v -30.00003433227539 -1.999997854232788 54.00007629394531
v -30.00003433227539 -1.999997854232788 69.00006866455078
v -26.00003433227539 -1.499997735023499 54.00007629394531
v -30.00003433227539 -1.999997854232788 54.00007629394531
v -26.00003433227539 -1.499997735023499 69.00006866455078
v -26.00003433227539 -4.999997615814209 69.00006866455078
v -26.00003433227539 -1.499997735023499 54.00007629394531
v -26.00003433227539 -1.499997735023499 69.00006866455078
v -26.00003433227539 -4.999997615814209 54.00007629394531
v -26.00003433227539 -4.999997615814209 69.00006866455078
v -25.00002670288086 -4.999997615814209 54.00007629394531
v -26.00003433227539 -4.999997615814209 54.00007629394531
v -25.00002670288086 -4.999997615814209 69.00006866455078
v -25.00002670288086 5.000002384185791 69.00006866455078
v -25.00002670288086 38.00000381469727 54.00007629394531
v -25.00002670288086 38.00000381469727 69.00006866455078
v -25.00002670288086 5.000002384185791 54.00007629394531
v -25.00002670288086 -37.99999618530273 69.00006866455078
v -25.00002670288086 -4.999997615814209 54.00007629394531
v -25.00002670288086 -4.999997615814209 69.00006866455078
v -25.00002670288086 -37.99999618530273 54.00007629394531
v -25.00002670288086 -37.99999618530273 54.00007629394531
v -35.00002670288086 -37.99999618530273 69.00006866455078
v -35.00002670288086 -37.99999618530273 54.00007629394531
v -25.00002670288086 -37.99999618530273 69.00006866455078
v -30.00003433227539 -1.999997854232788 69.00006866455078
v -26.00003433227539 -4.999997615814209 69.00006866455078
v -26.00003433227539 -1.499997735023499 69.00006866455078
v -35.00002670288086 38.00000381469727 69.00006866455078
v -25.00002670288086 5.000002384185791 69.00006866455078
v -25.00002670288086 38.00000381469727 69.00006866455078
v -26.00003433227539 5.000002384185791 69.00006866455078
v -26.00003433227539 1.500002264976502 69.00006866455078
v -30.00003433227539 2.000002145767212 69.00006866455078
v -35.00002670288086 -37.99999618530273 69.00006866455078
v -25.00002670288086 -4.999997615814209 69.00006866455078
v -25.00002670288086 -37.99999618530273 69.00006866455078
vt 3.937007904052734 5.905511856079102
vt 0 0
vt 3.937007904052734 0
vt 0 5.905511856079102
vt 23.68766403198242 -3.068360452870844e-12
vt -3.853211152926583e-12 5.905511856079102
vt -3.853211152926583e-12 1.064866684413746e-11
vt 23.68766403198242 5.905511856079102
vt -3.937007904052734 23.68766403198242
vt 5.993429660872935e-27 13.40223121643066
vt 9.580958248989191e-11 23.68766403198242
vt -0.3937008380889893 13.40223121643066
vt -1.968503952026367 12.46719169616699
vt -0.3937007784843445 10.28543281555176
vt 0 0
vt 5.993429660872935e-27 10.28543281555176
vt -3.937007904052734 -1.57656159326567e-24
vt -0.3937008380889893 11.37631225585938
vt -1.968503952026367 11.22047233581543
vt -0.3937008380889893 12.31135177612305
vt 0 5.905511856079102
vt -0.3937007784843445 3.552713678800501e-15
vt 0 3.552713678800501e-15
vt -0.3937007784843445 5.905511856079102
vt -11.37631225585938 5.905511856079102
vt -10.28543281555176 3.552713678800501e-15
vt -10.28543281555176 5.905511856079102
vt -11.37631225585938 3.552713678800501e-15
vt 0.7285217642784119 5.905511856079102
vt -0.853973388671875 3.552713678800501e-15
vt 0.7285217642784119 3.552713678800501e-15
vt -0.853973388671875 5.905511856079102
vt -12.46719169616699 5.905511856079102
vt -11.22047233581543 3.552713678800501e-15
vt -11.22047233581543 5.905511856079102
vt -12.46719169616699 3.552713678800501e-15
vt 3.186671257019043 5.905511856079102
vt 1.604176044464111 3.552713678800501e-15
vt 3.186671257019043 3.552713678800501e-15
vt 1.604176044464111 5.905511856079102
vt -13.40223121643066 5.905511856079102
vt -12.31135177612305 3.552713678800501e-15
vt -12.31135177612305 5.905511856079102
vt -13.40223121643066 3.552713678800501e-15
vt 0.3937006890773773 5.905511856079102
vt -1.58102707814578e-07 3.552713678800501e-15
vt 0.3937006890773773 3.552713678800501e-15
vt -1.58102707814578e-07 5.905511856079102
vt -10.28543281555176 5.905511856079102
vt 0 0
vt 0 5.905511856079102
vt -10.28543281555176 3.552713678800501e-15
vt -23.68766403198242 5.905511856079102
vt -13.40223121643066 3.552714102316975e-15
vt -13.40223121643066 5.905511856079102
vt -23.68766403198242 2.252420472359518e-12
vt 2.669275356304013e-10 2.252420472359518e-12
vt -3.937007904052734 5.905511856079102
vt -3.937007904052734 -1.371702751384873e-11
vt 2.190085335307401e-10 5.905511856079102
vt 1.968503952026367 12.46719169616699
vt 0.3937008380889893 13.40223121643066
vt 0.3937008380889893 12.31135177612305
vt 3.937007904052734 -1.952619923389909e-12
vt -1.088825991174547e-11 10.28543281555176
vt -1.088825991174547e-11 -1.952619923389909e-12
vt 0.3937007784843445 10.28543281555176
vt 0.3937008380889893 11.37631225585938
vt 1.968503952026367 11.22047233581543
vt 3.937007904052734 23.68766403198242
vt -1.088825991174547e-11 13.40223121643066
vt -5.877884290406144e-11 23.68766403198242
vn 0 1 0
vn 0 1 0
vn 0 1 0
vn 0 1 0
vn -1 0 0
vn -1 0 0
vn -1 0 0
vn -1 0 0
vn 2.095774291957508e-12 5.545370477914868e-13 -1
vn 2.028119859553978e-12 4.414871517411517e-13 -1
vn 4.056239719107957e-12 -1.730946928759497e-13 -1
vn 2.191841543333628e-13 6.442684385120356e-13 -1
vn 1.082165607124708e-12 3.337935125784924e-13 -1
vn 3.342182369211024e-16 -1.823008793626837e-16 -1
vn 0 -2.734512991916908e-16 -1
vn 0 -2.734512991916908e-16 -1
vn 7.344161628668189e-13 9.158178501580266e-14 -1
vn 4.853840247924003e-16 -1.275462079626627e-16 -1
vn 8.864460255647534e-16 -1.275461814928831e-16 -1
vn 0 0 -1
vn 0 -1 0
vn 0 -1 0
vn 0 -1 0
vn 0 -1 0
vn 1 -4.325594105125674e-08 0
vn 1 -4.325594105125674e-08 0
vn 1 -4.325594105125674e-08 0
vn 1 -4.325594105125674e-08 0
vn -0.1240347549319267 -0.9922778606414795 0
vn -0.1240347549319267 -0.9922778606414795 0
vn -0.1240347549319267 -0.9922778606414795 0
vn -0.1240347549319267 -0.9922778606414795 0
vn 1 0 0
vn 1 0 0
vn 1 0 0
vn 1 0 0
vn -0.1240347549319267 0.9922778606414795 0
vn -0.1240347549319267 0.9922778606414795 0
vn -0.1240347549319267 0.9922778606414795 0
vn -0.1240347549319267 0.9922778606414795 0
vn 1 0 0
vn 1 0 0
vn 1 0 0
vn 1 0 0
vn 0 1 0
vn 0 1 0
vn 0 1 0
vn 0 1 0
vn 1 0 0
vn 1 0 0
vn 1 0 0
vn 1 0 0
vn 1 5.530279359455825e-12 4.057142208996334e-12
vn 1 5.530279359455825e-12 4.057142208996334e-12
vn 1 3.686123455082235e-12 0
vn 1 7.374435263829415e-12 8.114284417992668e-12
vn 0 -1 0
vn 0 -1 0
vn 0 -1 0
vn 0 -1 0
vn 0 0 1
vn 0 0 1
vn 0 0 1
vn 0 0 1
vn 0 0 1
vn 0 0 1
vn 0 0 1
vn 0 0 1
vn 0 0 1
vn 0 0 1
vn 0 0 1
vn 0 0 1
f 1/1/1 2/2/2 3/3/3
f 2/2/2 1/1/1 4/4/4
f 5/5/5 6/6/6 7/7/7
f 6/6/6 5/5/5 8/8/8
f 9/9/9 10/10/10 11/11/11
f 10/10/10 9/9/9 12/12/12
f 12/12/12 9/9/9 13/13/13
f 14/14/14 15/15/15 16/16/16
f 15/15/15 14/14/14 17/17/17
f 17/17/17 14/14/14 18/18/18
f 17/17/17 18/18/18 19/19/19
f 17/17/17 19/19/19 13/13/13
f 17/17/17 13/13/13 9/9/9
f 13/13/13 20/20/20 12/12/12
f 21/21/21 22/22/22 23/23/23
f 22/22/22 21/21/21 24/24/24
f 25/25/25 26/26/26 27/27/27
f 26/26/26 25/25/25 28/28/28
f 29/29/29 30/30/30 31/31/31
f 30/30/30 29/29/29 32/32/32
f 33/33/33 34/34/34 35/35/35
f 34/34/34 33/33/33 36/36/36
f 37/37/37 38/38/38 39/39/39
f 38/38/38 37/37/37 40/40/40
f 41/41/41 42/42/42 43/43/43
f 42/42/42 41/41/41 44/44/44
f 45/45/45 46/46/46 47/47/47
f 46/46/46 45/45/45 48/48/48
f 49/49/49 50/50/50 51/51/51
f 50/50/50 49/49/49 52/52/52
f 53/53/53 54/54/54 55/55/55
f 54/54/54 53/53/53 56/56/56
f 57/57/57 58/58/58 59/59/59
f 58/58/58 57/57/57 60/60/60
f 61/61/61 62/62/62 63/63/63
f 64/64/64 65/65/65 66/66/66
f 65/65/65 64/64/64 67/67/67
f 67/67/67 64/64/64 68/68/68
f 68/68/68 64/64/64 69/69/69
f 69/69/69 64/64/64 61/61/61
f 61/61/61 64/64/64 70/70/70
f 71/71/71 70/70/70 72/72/72
f 70/70/70 71/71/71 62/62/62
f 70/70/70 62/62/62 61/61/61
