# Rhino

g object_1
v 29.97113609313965 2.000271558761597 68.99781799316406
v 29.97113609313965 -1.999728560447693 53.9978141784668
v 29.97113609313965 2.000271558761597 53.9978141784668
v 29.97113609313965 -1.999728560447693 68.99781799316406
v 29.97113609313965 0.0002717231982387602 68.99781799316406
v -26.02886581420898 5.000272750854492 68.99781799316406
v -5.02886438369751 4.000272274017334 68.99781799316406
v -5.02886438369751 5.000272274017334 68.99781799316406
v -26.02886581420898 1.500272393226624 68.99781799316406
v 4.971130847930908 4.000272274017334 68.99781799316406
v 29.97113609313965 0.0002717231982387602 68.99781799316406
v 29.97113609313965 2.000271558761597 68.99781799316406
v 25.97113800048828 1.500271677970886 68.99781799316406
v 4.971130847930908 5.000272274017334 68.99781799316406
v 25.97113800048828 5.000271797180176 68.99781799316406
v -30.02886772155762 -1.999727606773377 68.99781799316406
v -30.02886772155762 2.000272512435913 68.99781799316406
v -26.02886581420898 -1.499727368354797 68.99781799316406
v 25.97113800048828 -1.499728083610535 68.99781799316406
v -26.02886772155762 -4.999727249145508 68.99781799316406
v -5.028864860534668 -3.999727725982666 68.99781799316406
v -5.028864860534668 -4.999727725982666 68.99781799316406
v 25.97113800048828 -4.999728202819824 68.99781799316406
v 4.97113037109375 -3.999727725982666 68.99781799316406
v 4.97113037109375 -4.999727725982666 68.99781799316406
v 29.97113609313965 -1.999728560447693 68.99781799316406
v 25.97113800048828 5.000271797180176 68.99781799316406
v 25.97113800048828 1.500271677970886 53.9978141784668
v 25.97113800048828 5.000271797180176 53.9978141784668
v 25.97113800048828 1.500271677970886 68.99781799316406
v 29.97113609313965 2.000271558761597 68.99781799316406
v 25.97113800048828 1.500271677970886 53.9978141784668
v 25.97113800048828 1.500271677970886 68.99781799316406
v 29.97113609313965 2.000271558761597 53.9978141784668
v 29.97113609313965 -1.999728560447693 53.9978141784668
v 25.97113800048828 -1.499728083610535 68.99781799316406
v 25.97113800048828 -1.499728083610535 53.9978141784668
v 29.97113609313965 -1.999728560447693 68.99781799316406
v 25.97113800048828 -1.499728083610535 68.99781799316406
v 25.97113800048828 -4.999728202819824 53.9978141784668
v 25.97113800048828 -1.499728083610535 53.9978141784668
v 25.97113800048828 -4.999728202819824 68.99781799316406
v 25.97113800048828 5.000271797180176 68.99781799316406
v 4.971130847930908 5.000272274017334 53.9978141784668
v 4.971130847930908 5.000272274017334 68.99781799316406
v 25.97113800048828 5.000271797180176 53.9978141784668
v 4.971130847930908 4.000272274017334 68.99781799316406
v -5.02886438369751 4.000272274017334 58.9978141784668
v -5.02886438369751 4.000272274017334 68.99781799316406
v 4.971130847930908 4.000272274017334 58.9978141784668
v -5.028864860534668 -4.999727725982666 53.9978141784668
v -26.02886772155762 -4.999727249145508 68.99781799316406
v -26.02886772155762 -4.999727249145508 53.9978141784668
v -5.028864860534668 -4.999727725982666 68.99781799316406
v 4.97113037109375 -3.999727725982666 58.9978141784668
v -5.028864860534668 -3.999727725982666 68.99781799316406
v -5.028864860534668 -3.999727725982666 58.9978141784668
v 4.97113037109375 -3.999727725982666 68.99781799316406
v 29.97113609313965 -1.999728560447693 53.9978141784668
v 25.97113800048828 1.500271677970886 53.9978141784668
v 29.97113609313965 2.000271558761597 53.9978141784668
v 25.97113800048828 -1.499728083610535 53.9978141784668
v 4.971130847930908 5.000272274017334 53.9978141784668
v 25.97113800048828 5.000271797180176 53.9978141784668
v 4.97113037109375 -4.999727725982666 53.9978141784668
v 25.97113800048828 -4.999728202819824 53.9978141784668
v 4.971130847930908 4.000272274017334 58.9978141784668
v -5.028864860534668 -3.999727725982666 58.9978141784668
v -5.02886438369751 4.000272274017334 58.9978141784668
v 4.97113037109375 -3.999727725982666 58.9978141784668
v 4.97113037109375 -4.999727725982666 53.9978141784668
v 4.97113037109375 -3.999727725982666 58.9978141784668
v 4.971130847930908 5.000272274017334 53.9978141784668
v 4.97113037109375 -4.999727725982666 68.99781799316406
v 4.97113037109375 -3.999727725982666 68.99781799316406
v 4.971130847930908 4.000272274017334 58.9978141784668
v 4.971130847930908 5.000272274017334 68.99781799316406
v 4.971130847930908 4.000272274017334 68.99781799316406
v -5.028864860534668 -4.999727725982666 53.9978141784668
v -5.028864860534668 -3.999727725982666 58.9978141784668
v -5.028864860534668 -4.999727725982666 68.99781799316406
v -5.02886438369751 4.000272274017334 58.9978141784668
v -5.028864860534668 -3.999727725982666 68.99781799316406
v -5.02886438369751 5.000272274017334 53.9978141784668
v -5.02886438369751 5.000272274017334 68.99781799316406
v -5.02886438369751 4.000272274017334 68.99781799316406
v -5.02886438369751 5.000272274017334 68.99781799316406
v -26.02886581420898 5.000272750854492 53.9978141784668
v -26.02886581420898 5.000272750854492 68.99781799316406
v -5.02886438369751 5.000272274017334 53.9978141784668
v -26.02886581420898 1.500272393226624 68.99781799316406
v -26.02886581420898 5.000272750854492 53.9978141784668
v -26.02886581420898 1.500272393226624 53.9978141784668
v -26.02886581420898 5.000272750854492 68.99781799316406
v -26.02886581420898 -1.499727368354797 53.9978141784668
v -30.02886772155762 -1.999727606773377 68.99781799316406
v -30.02886772155762 -1.999727606773377 53.9978141784668
v -26.02886581420898 -1.499727368354797 68.99781799316406
v -26.02886772155762 -4.999727249145508 68.99781799316406
v -26.02886581420898 -1.499727368354797 53.9978141784668
v -26.02886772155762 -4.999727249145508 53.9978141784668
v -26.02886581420898 -1.499727368354797 68.99781799316406
v -5.028864860534668 -4.999727725982666 53.9978141784668
v -26.02886581420898 5.000272750854492 53.9978141784668
v -5.02886438369751 5.000272274017334 53.9978141784668
v -26.02886581420898 1.500272393226624 53.9978141784668
v -26.02886581420898 -1.499727368354797 53.9978141784668
v -26.02886772155762 -4.999727249145508 53.9978141784668
v -30.02886772155762 -1.999727606773377 53.9978141784668
v -30.02886772155762 2.000272512435913 53.9978141784668
v -26.02886581420898 1.500272393226624 68.99781799316406
v -30.02886772155762 2.000272512435913 53.9978141784668
v -30.02886772155762 2.000272512435913 68.99781799316406
v -26.02886581420898 1.500272393226624 53.9978141784668
v -30.02886772155762 -1.999727606773377 68.99781799316406
v -30.02886772155762 2.000272512435913 53.9978141784668
v -30.02886772155762 -1.999727606773377 53.9978141784668
v -30.02886772155762 2.000272512435913 68.99781799316406
v 25.97113800048828 -4.999728202819824 53.9978141784668
v 4.97113037109375 -4.999727725982666 68.99781799316406
v 4.97113037109375 -4.999727725982666 53.9978141784668
v 25.97113800048828 -4.999728202819824 68.99781799316406
vt -1.181102395057678 5.905511856079102
vt -2.755905628204346 0
vt -1.181102395057678 0
vt -2.755905628204346 5.905511856079102
vt -1.968503952026367 5.905511856079102
vt 4.263256414560601e-14 15.74803161621094
vt 0.3937007784843445 24.01574897766113
vt 8.881784197001252e-16 24.01574897766113
vt 1.377952814102173 15.74803161621094
vt 0.3937007784843445 27.95275497436523
vt 1.968503952026367 37.7952766418457
vt 1.181102395057678 37.7952766418457
vt 1.377952814102173 36.22047424316406
vt 4.263256414560601e-14 27.95275497436523
vt 0 36.22047424316406
vt 2.755905628204346 14.17322826385498
vt 1.181102395057678 14.17322826385498
vt 2.559055089950562 15.74803161621094
vt 2.559055089950562 36.22047424316406
vt 3.937007904052734 15.74803161621094
vt 3.543307065963745 24.01574897766113
vt 3.937007904052734 24.01574897766113
vt 3.937007904052734 36.22047424316406
vt 3.543307065963745 27.95275497436523
vt 3.937007904052734 27.95275497436523
vt 2.755905628204346 37.7952766418457
vt 0 5.905511856079102
vt -1.377952814102173 0
vt 0 0
vt -1.377952814102173 5.905511856079102
vt -37.35691833496094 5.905511856079102
vt -35.76985931396484 9.255274243019074e-18
vt -35.76985931396484 5.905511856079102
vt -37.35691833496094 9.255274243019074e-18
vt 37.84524536132813 3.085091483271409e-18
vt 36.25818634033203 5.905511856079102
vt 36.25818634033203 3.085091483271409e-18
vt 37.84524536132813 5.905511856079102
vt -2.559055089950562 5.905511856079102
vt -3.937007904052734 0
vt -2.559055089950562 0
vt -3.937007904052734 5.905511856079102
vt -36.22047424316406 5.905511856079102
vt -27.95275497436523 0
vt -27.95275497436523 5.905511856079102
vt -36.22047424316406 0
vt -27.95275497436523 5.905511856079102
vt -24.01574897766113 1.968503952026367
vt -24.01574897766113 5.905511856079102
vt -27.95275497436523 1.968503952026367
vt 24.01574897766113 0
vt 15.74803161621094 5.905511856079102
vt 15.74803161621094 0
vt 24.01574897766113 5.905511856079102
vt 27.95275497436523 1.968503952026367
vt 24.01574897766113 5.905511856079102
vt 24.01574897766113 1.968503952026367
vt 27.95275497436523 5.905511856079102
vt -2.755905628204346 37.7952766418457
vt -1.377952814102173 36.22047424316406
vt -1.181102395057678 37.7952766418457
vt -2.559055089950562 36.22047424316406
vt -4.263256414560601e-14 27.95275497436523
vt 0 36.22047424316406
vt -3.937007904052734 27.95275497436523
vt -3.937007904052734 36.22047424316406
vt -0.3937007784843445 27.95275497436523
vt -3.543307065963745 24.01574897766113
vt -0.3937007784843445 24.01574897766113
vt -3.543307065963745 27.95275497436523
vt 3.937007904052734 0
vt 3.543307065963745 1.968503952026367
vt 4.263256414560601e-14 0
vt 3.937007904052734 5.905511856079102
vt 3.543307065963745 5.905511856079102
vt 0.3937007784843445 1.968503952026367
vt 4.263256414560601e-14 5.905511856079102
vt 0.3937007784843445 5.905511856079102
vt -3.937007904052734 0
vt -3.543307065963745 1.968503952026367
vt -3.937007904052734 5.905511856079102
vt -0.3937007784843445 1.968503952026367
vt -3.543307065963745 5.905511856079102
vt -8.881784197001252e-16 0
vt -8.881784197001252e-16 5.905511856079102
vt -0.3937007784843445 5.905511856079102
vt -24.01574897766113 5.905511856079102
vt -15.74803161621094 0
vt -15.74803161621094 5.905511856079102
vt -24.01574897766113 0
vt 1.377952814102173 5.905511856079102
vt -1.297067786293002e-13 4.246407425265752e-38
vt 1.377952814102173 4.246407425265752e-38
vt -1.297067786293002e-13 5.905511856079102
vt 15.30901145935059 -7.095710804435031e-18
vt 13.72195339202881 5.905511856079102
vt 13.72195339202881 -7.095710804435031e-18
vt 15.30901145935059 5.905511856079102
vt 3.937007904052734 5.905511856079102
vt 2.559055089950562 0
vt 3.937007904052734 0
vt 2.559055089950562 5.905511856079102
vt -3.937007904052734 24.01574897766113
vt -4.263256414560601e-14 15.74803161621094
vt -8.881784197001252e-16 24.01574897766113
vt -1.377952814102173 15.74803161621094
vt -2.559055089950562 15.74803161621094
vt -3.937007904052734 15.74803161621094
vt -2.755905628204346 14.17322826385498
vt -1.181102395057678 14.17322826385498
vt -15.79733753204346 5.905511856079102
vt -14.21027851104736 -9.255274243019074e-19
vt -14.21027851104736 5.905511856079102
vt -15.79733753204346 -9.255274243019074e-19
vt 2.755905628204346 5.905511856079102
vt 1.181102395057678 -8.968655280842441e-25
vt 2.755905628204346 -8.968655280842441e-25
vt 1.181102395057678 5.905511856079102
vt 36.22047424316406 0
vt 27.95275497436523 5.905511856079102
vt 27.95275497436523 0
vt 36.22047424316406 5.905511856079102
vn 1 -1.490114875934978e-08 0
vn 1 -1.490114875934978e-08 0
vn 1 -1.490114875934978e-08 0
vn 1 -1.490114875934978e-08 0
vn 0 0 1
vn 0 0 1
vn 0 0 1
vn 0 0 1
vn 0 0 1
vn 0 0 1
vn 0 0 1
vn 0 0 1
vn 0 0 1
vn 0 0 1
vn 0 0 1
vn 0 0 1
vn 0 0 1
vn 0 0 1
vn 0 0 1
vn 0 0 1
vn 0 0 1
vn 0 0 1
vn 0 0 1
vn 0 0 1
vn 0 0 1
vn 0 0 1
vn 1 -1.490114875934978e-08 0
vn 1 -1.490114875934978e-08 0
vn 1 -1.490114875934978e-08 0
vn 1 -1.490114875934978e-08 0
vn -0.1240347921848297 0.9922778606414795 0
vn -0.1240347921848297 0.9922778606414795 0
vn -0.1240347921848297 0.9922778606414795 0
vn -0.1240347921848297 0.9922778606414795 0
vn -0.1240348964929581 -0.9922778606414795 0
vn -0.1240348964929581 -0.9922778606414795 0
vn -0.1240348964929581 -0.9922778606414795 0
vn -0.1240348964929581 -0.9922778606414795 0
vn 1 -1.490114875934978e-08 0
vn 1 -1.490114875934978e-08 0
vn 1 -1.490114875934978e-08 0
vn 1 -1.490114875934978e-08 0
vn 1.490114343027926e-08 1 0
vn 1.490114343027926e-08 1 0
vn 1.490114343027926e-08 1 0
vn 1.490114343027926e-08 1 0
vn 1.490114875934978e-08 1 0
vn 1.490114875934978e-08 1 0
vn 1.490114875934978e-08 1 0
vn 1.490114875934978e-08 1 0
vn -1.490114875934978e-08 -1 0
vn -1.490114875934978e-08 -1 0
vn -1.490114875934978e-08 -1 0
vn -1.490114875934978e-08 -1 0
vn -1.490114875934978e-08 -1 0
vn -1.490114875934978e-08 -1 0
vn -1.490114875934978e-08 -1 0
vn -1.490114875934978e-08 -1 0
vn 0 0 -1
vn 0 0 -1
vn 0 0 -1
vn 0 0 -1
vn 0 0 -1
vn 0 0 -1
vn 0 0 -1
vn 0 0 -1
vn 0 0 -1
vn 0 0 -1
vn 0 0 -1
vn 0 0 -1
vn -1 1.490114875934978e-08 0
vn -1 1.490114875934978e-08 0
vn -1 1.490114875934978e-08 0
vn -1 1.490114875934978e-08 0
vn -1 1.490114875934978e-08 0
vn -1 1.490114875934978e-08 0
vn -1 1.490114875934978e-08 0
vn -1 1.490114875934978e-08 0
vn 1 -1.490114875934978e-08 0
vn 1 -1.490114875934978e-08 0
vn 1 -1.490114875934978e-08 0
vn 1 -1.490114875934978e-08 0
vn 1 -1.490114875934978e-08 0
vn 1 -1.490114875934978e-08 0
vn 1 -1.490114875934978e-08 0
vn 1 -1.490114875934978e-08 0
vn 1.490114343027926e-08 1 0
vn 1.490114343027926e-08 1 0
vn 1.490114343027926e-08 1 0
vn 1.490114343027926e-08 1 0
vn -1 1.490114875934978e-08 0
vn -1 1.490114875934978e-08 0
vn -1 1.490114875934978e-08 0
vn -1 1.490114875934978e-08 0
vn 0.1240347921848297 -0.9922778606414795 0
vn 0.1240347921848297 -0.9922778606414795 0
vn 0.1240347921848297 -0.9922778606414795 0
vn 0.1240347921848297 -0.9922778606414795 0
vn -1 1.490114875934978e-08 0
vn -1 1.490114875934978e-08 0
vn -1 1.490114875934978e-08 0
vn -1 1.490114875934978e-08 0
vn 0 0 -1
vn 0 0 -1
vn 0 0 -1
vn 0 0 -1
vn 0 0 -1
vn 0 0 -1
vn 0 0 -1
vn 0 0 -1
vn 0.1240347474813461 0.9922778606414795 0
vn 0.1240347474813461 0.9922778606414795 0
vn 0.1240347474813461 0.9922778606414795 0
vn 0.1240347474813461 0.9922778606414795 0
vn -1 1.490114875934978e-08 0
vn -1 1.490114875934978e-08 0
vn -1 1.490114875934978e-08 0
vn -1 1.490114875934978e-08 0
vn -1.490114875934978e-08 -1 0
vn -1.490114875934978e-08 -1 0
vn -1.490114875934978e-08 -1 0
vn -1.490114875934978e-08 -1 0
f 1/1/1 2/2/2 3/3/3
f 2/2/2 1/1/1 4/4/4
f 4/4/4 1/1/1 5/5/5
f 6/6/6 7/7/7 8/8/8
f 7/7/7 6/6/6 9/9/9
f 7/7/7 9/9/9 10/10/10
f 11/11/11 12/12/12 13/13/13
f 14/14/14 13/13/13 15/15/15
f 13/13/13 14/14/14 10/10/10
f 13/13/13 10/10/10 9/9/9
f 16/16/16 9/9/9 17/17/17
f 9/9/9 16/16/16 18/18/18
f 9/9/9 18/18/18 13/13/13
f 13/13/13 18/18/18 11/11/11
f 11/11/11 18/18/18 19/19/19
f 20/20/20 21/21/21 18/18/18
f 21/21/21 20/20/20 22/22/22
f 18/18/18 23/23/23 19/19/19
f 23/23/23 18/18/18 24/24/24
f 24/24/24 18/18/18 21/21/21
f 23/23/23 24/24/24 25/25/25
f 26/26/26 11/11/11 19/19/19
f 27/27/27 28/28/28 29/29/29
f 28/28/28 27/27/27 30/30/30
f 31/31/31 32/32/32 33/33/33
f 32/32/32 31/31/31 34/34/34
f 35/35/35 36/36/36 37/37/37
f 36/36/36 35/35/35 38/38/38
f 39/39/39 40/40/40 41/41/41
f 40/40/40 39/39/39 42/42/42
f 43/43/43 44/44/44 45/45/45
f 44/44/44 43/43/43 46/46/46
f 47/47/47 48/48/48 49/49/49
f 48/48/48 47/47/47 50/50/50
f 51/51/51 52/52/52 53/53/53
f 52/52/52 51/51/51 54/54/54
f 55/55/55 56/56/56 57/57/57
f 56/56/56 55/55/55 58/58/58
f 59/59/59 60/60/60 61/61/61
f 60/60/60 59/59/59 62/62/62
f 60/60/60 63/63/63 64/64/64
f 63/63/63 60/60/60 65/65/65
f 65/65/65 60/60/60 62/62/62
f 65/65/65 62/62/62 66/66/66
f 67/67/67 68/68/68 69/69/69
f 68/68/68 67/67/67 70/70/70
f 71/71/71 72/72/72 73/73/73
f 72/72/72 71/71/71 74/74/74
f 72/72/72 74/74/74 75/75/75
f 73/73/73 76/76/76 77/77/77
f 76/76/76 73/73/73 72/72/72
f 77/77/77 76/76/76 78/78/78
f 79/79/79 80/80/80 81/81/81
f 80/80/80 79/79/79 82/82/82
f 81/81/81 80/80/80 83/83/83
f 84/84/84 82/82/82 79/79/79
f 82/82/82 84/84/84 85/85/85
f 82/82/82 85/85/85 86/86/86
f 87/87/87 88/88/88 89/89/89
f 88/88/88 87/87/87 90/90/90
f 91/91/91 92/92/92 93/93/93
f 92/92/92 91/91/91 94/94/94
f 95/95/95 96/96/96 97/97/97
f 96/96/96 95/95/95 98/98/98
f 99/99/99 100/100/100 101/101/101
f 100/100/100 99/99/99 102/102/102
f 103/103/103 104/104/104 105/105/105
f 104/104/104 103/103/103 106/106/106
f 106/106/106 103/103/103 107/107/107
f 107/107/107 103/103/103 108/108/108
f 106/106/106 109/109/109 110/110/110
f 109/109/109 106/106/106 107/107/107
f 111/111/111 112/112/112 113/113/113
f 112/112/112 111/111/111 114/114/114
f 115/115/115 116/116/116 117/117/117
f 116/116/116 115/115/115 118/118/118
f 119/119/119 120/120/120 121/121/121
f 120/120/120 119/119/119 122/122/122
